<?xml version="1.0" standalone="no"?>
<!DOCTYPE svg PUBLIC "-//W3C//DTD SVG 20010904//EN"
 "http://www.w3.org/TR/2001/REC-SVG-20010904/DTD/svg10.dtd">
<svg version="1.0" xmlns="http://www.w3.org/2000/svg"
 width="559.000000pt" height="447.000000pt" viewBox="0 0 559.000000 447.000000"
 preserveAspectRatio="xMidYMid meet">

<g transform="translate(0.000000,447.000000) scale(0.100000,-0.100000)"
fill="#000000" stroke="none">
<path d="M2590 4138 c-85 -14 -189 -39 -250 -59 -114 -39 -141 -50 -222 -92
-214 -111 -397 -263 -573 -478 -108 -130 -257 -416 -319 -609 -98 -308 -125
-637 -80 -980 78 -586 411 -1111 886 -1395 63 -38 215 -108 278 -128 151 -49
188 -58 325 -74 330 -38 651 38 962 228 215 132 421 342 565 579 25 41 57 98
71 125 170 329 258 761 228 1118 -16 189 -24 238 -65 402 -37 148 -74 252
-137 382 -39 79 -144 260 -159 273 -3 3 -13 17 -22 31 -9 15 -45 60 -80 100
-335 391 -747 591 -1213 588 -77 -1 -165 -6 -195 -11z m326 -118 c381 -36 697
-200 971 -505 538 -597 625 -1555 208 -2277 -67 -116 -138 -217 -180 -258
l-35 -34 0 50 c0 66 -35 196 -68 258 -15 27 -55 78 -88 113 -51 52 -80 72
-165 112 -57 27 -162 69 -234 94 -71 25 -138 48 -147 52 -15 6 -18 21 -18 104
l0 98 183 6 c143 5 196 10 249 27 37 11 70 25 73 30 3 5 -8 42 -24 82 -16 40
-39 107 -49 148 -25 93 -59 331 -67 465 -12 202 -43 363 -98 514 -74 202 -242
382 -427 457 -53 21 -80 26 -155 26 -104 -1 -175 -21 -257 -75 -37 -24 -69
-36 -106 -40 -74 -9 -137 -43 -193 -106 -99 -111 -124 -197 -188 -636 -68
-462 -106 -624 -187 -783 -13 -26 -24 -52 -24 -59 0 -29 102 -44 323 -50 l218
-6 -3 -100 -3 -101 -65 -19 c-170 -49 -437 -177 -500 -240 -74 -75 -124 -202
-136 -350 -4 -43 -10 -76 -14 -75 -17 7 -99 111 -163 208 -118 178 -196 356
-252 575 -63 248 -81 520 -50 753 16 123 16 121 45 246 94 398 329 765 645
1009 94 73 93 72 215 136 154 79 303 126 470 146 139 16 167 17 296 5z m-322
-1058 c21 -53 80 -136 128 -181 36 -34 134 -84 151 -78 8 2 10 32 8 84 -2 57
1 83 10 89 7 4 14 3 16 -2 14 -41 140 -184 189 -214 36 -23 220 -90 245 -90
31 0 59 -48 59 -102 0 -82 -71 -190 -144 -218 -14 -5 -29 -26 -41 -57 -28 -75
-92 -207 -120 -250 -42 -62 -121 -138 -176 -167 -75 -42 -149 -45 -219 -12
-62 29 -140 98 -194 169 -35 48 -116 205 -116 226 0 24 -41 91 -55 91 -21 0
-98 78 -118 120 -48 96 -29 156 72 225 38 25 83 62 101 81 43 48 103 163 129
247 11 38 23 73 27 78 12 20 30 6 48 -39z"/>
</g>
</svg>
