<?xml version="1.0" standalone="no"?>
<!DOCTYPE svg PUBLIC "-//W3C//DTD SVG 20010904//EN"
 "http://www.w3.org/TR/2001/REC-SVG-20010904/DTD/svg10.dtd">
<svg version="1.0" xmlns="http://www.w3.org/2000/svg"
 width="512.000000pt" height="512.000000pt" viewBox="0 0 512.000000 512.000000"
 preserveAspectRatio="xMidYMid meet">

<g transform="translate(0.000000,512.000000) scale(0.100000,-0.100000)"
fill="#000000" stroke="none">
<path d="M2366 5104 c-168 -26 -343 -94 -476 -184 -64 -43 -80 -64 -80 -104 0
-28 42 -66 72 -66 11 0 62 27 114 59 130 82 271 131 447 155 l37 5 0 -194 0
-193 -52 -18 c-250 -81 -488 -283 -589 -498 l-31 -66 -68 0 -68 0 -16 69 c-32
140 -16 283 46 421 29 67 31 74 17 99 -20 36 -60 54 -93 41 -30 -11 -73 -91
-108 -200 -31 -99 -33 -321 -5 -414 l18 -59 -29 -31 c-60 -63 -67 -88 -68
-241 -1 -126 -4 -147 -28 -213 -39 -107 -56 -208 -56 -342 0 -104 2 -120 21
-144 26 -33 77 -36 105 -5 16 18 20 43 26 173 4 95 12 171 22 204 l17 52 37
-29 c53 -43 126 -72 194 -79 l59 -5 44 -93 c61 -131 134 -231 242 -334 l93
-88 0 -128 c0 -128 -9 -197 -28 -216 -6 -6 -25 -1 -53 13 -62 33 -176 33 -237
1 -43 -23 -43 -23 -70 -3 -54 39 -132 128 -194 221 -57 85 -67 95 -97 98 -40
4 -81 -29 -81 -65 0 -49 97 -196 190 -288 33 -33 60 -63 60 -66 0 -4 -33 -25
-72 -47 -51 -28 -108 -48 -189 -66 -75 -17 -132 -37 -160 -55 -57 -36 -116
-102 -143 -160 -20 -45 -21 -61 -24 -499 l-3 -452 -153 0 -153 0 -6 85 c-4 68
-10 93 -28 120 -32 46 -92 75 -157 75 l-52 0 0 256 c0 276 6 323 48 374 l27
31 44 -15 c56 -21 145 -20 205 0 63 22 138 97 160 160 20 61 20 147 0 208 -22
65 -97 139 -164 161 -65 22 -169 17 -225 -10 -50 -25 -105 -80 -130 -130 -26
-55 -32 -161 -11 -221 l16 -47 -32 -35 c-17 -20 -43 -61 -57 -92 -26 -55 -26
-57 -29 -347 l-4 -293 -46 0 c-61 -1 -123 -29 -153 -71 -20 -28 -25 -49 -27
-120 l-4 -87 -70 -4 c-112 -6 -108 6 -108 -335 l0 -284 25 -24 c23 -24 30 -25
147 -25 l123 -1 125 -186 c69 -102 134 -192 145 -199 47 -33 109 0 109 58 0
27 -21 65 -98 177 -53 79 -96 145 -93 147 2 2 938 3 2080 2 l2077 -3 -100
-150 c-55 -82 -100 -160 -100 -173 0 -30 42 -72 72 -72 13 0 32 6 43 14 11 8
76 98 145 200 l125 185 123 1 c117 0 124 1 147 25 l25 24 0 284 c0 341 4 329
-108 335 l-70 4 -4 88 c-2 70 -7 95 -24 117 -29 40 -99 73 -155 73 l-47 0 -4
293 c-3 290 -3 292 -29 347 -14 31 -40 72 -57 92 l-32 35 16 47 c21 60 15 166
-11 221 -28 57 -97 120 -152 139 -60 20 -146 20 -206 0 -52 -17 -124 -82 -154
-135 -26 -48 -26 -210 0 -258 30 -53 102 -118 154 -135 59 -20 148 -20 204 0
l44 15 27 -31 c42 -51 48 -98 48 -374 l0 -256 -52 0 c-65 0 -125 -29 -157 -75
-18 -27 -24 -52 -28 -120 l-6 -85 -153 0 -154 0 0 215 c0 202 -1 216 -20 235
-25 25 -71 26 -101 1 -24 -19 -24 -22 -27 -235 l-3 -216 -355 0 -355 0 56 103
c107 195 110 202 96 234 -6 15 -26 38 -44 51 -78 55 -85 27 69 269 76 120 162
255 190 299 l53 82 81 -19 c45 -11 93 -25 108 -33 64 -34 102 -104 102 -190 0
-66 14 -100 47 -115 34 -16 47 -14 78 11 27 21 27 22 23 117 -5 111 -24 165
-84 231 -63 70 -114 96 -243 126 -81 18 -138 38 -188 66 -40 22 -73 42 -73 45
0 3 34 41 75 85 132 141 217 304 257 498 16 78 19 120 15 240 -5 152 -20 227
-69 348 -22 53 -24 68 -16 105 14 59 4 196 -17 238 -9 19 -31 48 -47 65 l-29
31 18 59 c28 93 26 315 -5 414 -80 252 -260 450 -526 576 -212 100 -469 136
-710 98z m399 -155 c75 -13 214 -58 280 -91 130 -66 275 -197 343 -311 83
-137 112 -316 78 -471 l-17 -76 -70 0 c-67 0 -70 1 -80 28 -18 49 -61 126 -82
150 -29 32 -79 30 -106 -4 -28 -36 -27 -53 14 -126 53 -98 65 -159 65 -346 0
-110 -5 -188 -16 -240 -56 -272 -230 -500 -481 -629 -105 -54 -150 -56 -241
-13 -256 121 -450 367 -506 642 -22 108 -22 384 0 459 65 218 269 411 528 500
l84 29 68 -21 c38 -11 117 -46 176 -77 93 -48 111 -55 135 -46 38 13 60 55 48
91 -13 37 -136 111 -256 154 l-89 32 0 193 0 194 28 -5 c15 -2 59 -9 97 -16z
m-983 -1296 c2 -109 3 -200 1 -202 -7 -10 -82 22 -116 50 -58 48 -80 99 -85
201 -4 86 -4 87 26 118 28 28 36 30 100 30 l70 0 4 -197z m1724 173 c24 -20
28 -32 32 -88 8 -132 -48 -234 -151 -273 -26 -10 -49 -16 -50 -14 -2 2 -1 93
1 202 l4 197 69 0 c57 0 72 -4 95 -24z m100 -523 c22 -106 15 -308 -16 -413
-44 -153 -153 -323 -271 -422 l-47 -39 -43 23 c-62 32 -176 32 -238 -1 -28
-14 -47 -19 -53 -13 -19 19 -28 88 -28 216 l0 128 93 88 c108 103 181 203 242
334 l44 93 61 6 c67 6 172 51 205 87 24 27 30 17 51 -87z m-1171 -638 c43 -17
79 -25 125 -25 46 0 82 8 125 25 33 14 63 25 66 25 3 0 9 -53 12 -118 5 -125
27 -201 68 -238 25 -23 24 -38 -15 -179 l-32 -120 -224 0 -224 0 -32 120 c-39
141 -40 156 -15 179 41 37 63 113 68 238 3 65 9 118 12 118 3 0 33 -11 66 -25z
m-1585 -291 c81 -48 81 -180 0 -228 -60 -35 -150 -13 -184 44 -34 59 -14 148
43 183 34 21 105 21 141 1z m3560 0 c81 -48 81 -180 0 -228 -60 -35 -150 -13
-184 44 -34 59 -14 148 43 183 34 21 105 21 141 1z m-2340 -61 c16 -9 36 -30
44 -47 13 -25 316 -1167 316 -1190 0 -3 -65 -6 -144 -6 l-144 0 -76 140 c-42
77 -76 143 -76 147 0 5 25 28 55 51 59 47 74 77 54 114 -6 12 -98 158 -202
323 -104 165 -190 306 -191 313 -1 8 42 39 94 69 195 113 214 119 270 86z
m1215 -66 c72 -41 130 -81 129 -89 -1 -7 -87 -148 -191 -313 -104 -165 -196
-311 -202 -323 -20 -37 -5 -68 52 -113 28 -23 53 -45 55 -49 2 -5 -31 -72 -73
-149 l-77 -141 -144 0 c-79 0 -144 3 -144 6 0 14 301 1160 311 1186 6 15 25
37 43 48 51 34 94 23 241 -63z m-1540 -442 c97 -153 179 -284 181 -290 2 -5
-19 -26 -46 -45 -27 -19 -55 -48 -61 -63 -14 -32 -11 -38 96 -234 l56 -103
-355 0 -356 0 0 428 c0 475 1 477 69 535 45 38 207 83 227 63 6 -6 91 -137
189 -291z m995 69 c0 -20 -175 -674 -180 -674 -5 0 -180 654 -180 674 0 3 81
6 180 6 99 0 180 -3 180 -6z m-2092 -741 l3 -63 -161 0 -160 0 0 65 0 66 158
-3 157 -3 3 -62z m4142 2 l0 -65 -160 0 -160 0 0 58 c0 32 3 62 7 65 3 4 75 7
160 7 l153 0 0 -65z m180 -400 l0 -185 -2410 0 -2410 0 0 185 0 185 2410 0
2410 0 0 -185z"/>
<path d="M2342 3323 c-7 -3 -19 -18 -27 -34 -36 -68 35 -127 182 -151 120 -20
289 28 310 89 14 40 -7 90 -42 99 -27 7 -30 6 -115 -25 -72 -27 -110 -26 -195
4 -70 25 -89 28 -113 18z"/>
</g>
</svg>
