<svg xmlns="http://www.w3.org/2000/svg" viewBox="0 0 64 64" id="internet-setting"><path d="M61,52H59V40H57V52H55V25a1,1,0,0,0-1-1H10a1,1,0,0,0-1,1V52H7V28H5V52H3a1,1,0,0,0-1,1v4a5.006,5.006,0,0,0,5,5H57a5.006,5.006,0,0,0,5-5V53A1,1,0,0,0,61,52ZM11,26H53V52H11ZM25,54H39v1a1,1,0,0,1-1,1H26a1,1,0,0,1-1-1Zm35,3a3,3,0,0,1-3,3H7a3,3,0,0,1-3-3V54H23v1a3,3,0,0,0,3,3H38a3,3,0,0,0,3-3V54H60Z"></path><path d="M5,23v3.024H7V23a1,1,0,0,1,1-1H56a1,1,0,0,1,1,1V38h2V23a3,3,0,0,0-3-3H50V17.571a1,1,0,0,0-.876-.992l-2.855-.356a14.554,14.554,0,0,0-1.512-3.636l1.77-2.276a1,1,0,0,0-.082-1.322L43.011,5.555a1,1,0,0,0-1.322-.082l-2.276,1.77a14.554,14.554,0,0,0-3.636-1.512l-.356-2.855A1,1,0,0,0,34.429,2H29.571a1,1,0,0,0-.992.876l-.356,2.855a14.554,14.554,0,0,0-3.636,1.512l-2.276-1.77a1,1,0,0,0-1.322.082L17.555,8.989a1,1,0,0,0-.082,1.322l1.77,2.276a14.554,14.554,0,0,0-1.512,3.636l-2.855.356a1,1,0,0,0-.876.992V20H8A3,3,0,0,0,5,23Zm21-3a6,6,0,0,1,12,0ZM16,18.454l2.667-.333a1,1,0,0,0,.854-.784A12.623,12.623,0,0,1,21.3,13.065a1,1,0,0,0-.05-1.159L19.593,9.779l2.186-2.186,2.127,1.654a1,1,0,0,0,1.159.05,12.623,12.623,0,0,1,4.272-1.776,1,1,0,0,0,.784-.854L30.454,4h3.092l.333,2.667a1,1,0,0,0,.784.854A12.623,12.623,0,0,1,38.935,9.3a1,1,0,0,0,1.159-.05l2.127-1.654,2.186,2.186-1.654,2.127a1,1,0,0,0-.05,1.159,12.623,12.623,0,0,1,1.776,4.272,1,1,0,0,0,.854.784L48,18.454V20H40a8,8,0,0,0-16,0H16Z"></path><rect width="2" height="2" x="50" y="56"></rect><rect width="2" height="2" x="54" y="56"></rect><rect width="8" height="2" x="8" y="56"></rect><path d="M35,39A11,11,0,1,0,24,50,11.013,11.013,0,0,0,35,39ZM25,38V30.335c1.443.935,2.775,3.793,2.974,7.665Zm2.974,2c-.2,3.872-1.531,6.73-2.974,7.665V40ZM23,30.335V38H20.026C20.225,34.128,21.557,31.27,23,30.335ZM23,40v7.665c-1.443-.935-2.775-3.793-2.974-7.665Zm5.167,6.97A15.816,15.816,0,0,0,29.973,40h2.968A9.014,9.014,0,0,1,28.167,46.97ZM32.941,38H29.973a15.816,15.816,0,0,0-1.806-6.97A9.014,9.014,0,0,1,32.941,38ZM19.833,31.03A15.816,15.816,0,0,0,18.027,38H15.059A9.014,9.014,0,0,1,19.833,31.03ZM15.059,40h2.968a15.816,15.816,0,0,0,1.806,6.97A9.014,9.014,0,0,1,15.059,40Z"></path><rect width="13" height="2" x="38" y="32"></rect><rect width="13" height="2" x="38" y="40"></rect><rect width="9" height="2" x="38" y="36"></rect><rect width="2" height="2" x="49" y="36"></rect><rect width="9" height="2" x="38" y="44"></rect><rect width="2" height="2" x="49" y="44"></rect></svg>