<?xml version="1.0" standalone="no"?>
<!DOCTYPE svg PUBLIC "-//W3C//DTD SVG 20010904//EN"
 "http://www.w3.org/TR/2001/REC-SVG-20010904/DTD/svg10.dtd">
<svg version="1.0" xmlns="http://www.w3.org/2000/svg"
 width="600.000000pt" height="600.000000pt" viewBox="0 0 600.000000 600.000000"
 preserveAspectRatio="xMidYMid meet">

<g transform="translate(0.000000,600.000000) scale(0.100000,-0.100000)"
fill="#000000" stroke="none">
<path d="M3020 5989 c-625 -71 -1143 -479 -1356 -1067 -40 -109 -40 -116 -14
-173 23 -52 26 -130 6 -187 -8 -22 -118 -187 -245 -366 -127 -180 -231 -328
-231 -331 0 -3 74 -5 165 -5 184 0 213 -7 240 -60 41 -79 -16 -160 -113 -160
l-39 0 1 -52 c1 -29 -2 -72 -6 -94 -7 -39 -6 -42 16 -48 35 -9 94 -79 102
-123 4 -20 2 -54 -3 -75 -9 -34 -8 -40 9 -49 36 -19 78 -99 78 -148 0 -40 -5
-48 -49 -90 -66 -62 -85 -102 -85 -176 0 -68 19 -112 68 -157 62 -57 73 -58
731 -58 390 0 622 4 661 11 114 21 215 93 265 192 54 105 209 73 209 -42 0
-81 -134 -239 -259 -305 -116 -61 -153 -66 -454 -66 l-269 0 6 -23 c3 -12 6
-181 6 -374 l0 -353 855 0 854 0 3 688 3 687 24 45 c13 24 71 94 130 155 121
125 181 202 253 325 141 238 214 488 225 770 19 500 -150 930 -500 1266 -341
329 -825 495 -1287 443z m279 -318 c58 -12 75 -31 120 -141 l39 -93 60 -23
c32 -12 73 -29 90 -38 29 -15 33 -14 121 24 51 22 104 40 119 40 42 0 89 -34
189 -137 125 -127 128 -138 73 -270 l-42 -101 30 -68 c16 -38 33 -79 36 -91 5
-15 32 -31 104 -60 125 -50 137 -67 146 -195 8 -109 -5 -238 -27 -272 -10 -15
-51 -37 -113 -62 l-96 -39 -39 -90 c-22 -50 -38 -97 -35 -105 2 -8 21 -55 41
-103 26 -63 35 -96 30 -116 -14 -64 -218 -265 -280 -277 -24 -4 -56 5 -130 36
l-99 42 -55 -26 c-31 -14 -72 -32 -91 -39 -29 -12 -39 -24 -59 -73 -46 -113
-61 -140 -89 -156 -37 -22 -213 -33 -307 -19 -87 13 -109 34 -156 154 -19 48
-38 87 -43 87 -5 0 -46 16 -91 35 l-81 35 -96 -40 c-53 -22 -105 -40 -115 -40
-11 0 -39 13 -64 28 -57 37 -217 205 -225 237 -10 38 0 83 36 167 l33 76 -33
84 c-19 45 -38 88 -42 94 -4 6 -46 26 -92 44 -50 19 -96 44 -113 62 -28 29
-28 30 -31 183 -3 135 -1 158 16 198 18 41 25 46 108 80 49 20 95 40 102 44 7
5 28 46 47 92 19 46 36 86 39 88 2 2 -14 45 -35 94 -21 50 -39 105 -39 123 0
40 32 87 121 175 85 85 136 121 171 121 16 0 72 -18 124 -39 l94 -40 73 33
c39 18 80 36 90 39 9 4 22 18 27 33 65 169 79 189 145 205 42 10 241 10 294 0z"/>
<path d="M3060 5378 c-18 -46 -42 -93 -52 -105 -11 -11 -61 -35 -111 -53 -51
-17 -115 -45 -143 -61 -28 -16 -63 -29 -77 -29 -14 0 -62 16 -107 35 -45 19
-87 35 -94 35 -17 0 -76 -63 -76 -81 0 -9 16 -52 35 -96 19 -45 35 -89 35 -99
0 -10 -16 -48 -35 -85 -19 -37 -46 -102 -60 -145 -14 -43 -35 -88 -46 -100
-11 -12 -58 -36 -105 -54 l-84 -33 0 -61 0 -61 86 -34 c48 -19 95 -42 105 -52
10 -10 26 -44 35 -76 9 -32 36 -99 60 -149 24 -51 44 -99 44 -107 0 -9 -17
-56 -39 -106 l-39 -89 43 -42 43 -42 83 36 c45 20 95 36 110 36 15 0 65 -18
110 -40 46 -22 109 -47 141 -56 75 -22 98 -46 138 -149 l33 -86 60 3 59 3 34
84 c19 47 43 94 54 106 11 12 48 29 81 39 33 9 96 34 139 56 44 22 92 40 107
40 16 0 68 -16 116 -37 l88 -36 41 40 40 40 -36 83 c-20 46 -36 99 -36 117 0
18 15 64 34 101 18 37 43 99 56 137 12 39 32 80 44 92 11 13 59 38 106 57 l85
34 0 58 0 58 -90 38 c-49 21 -98 47 -107 58 -9 12 -24 46 -33 78 -9 31 -34 92
-56 136 -22 43 -39 93 -39 111 0 18 16 70 35 116 l36 82 -38 39 c-20 21 -42
38 -49 38 -7 0 -49 -16 -94 -35 -45 -19 -90 -35 -101 -35 -11 0 -54 18 -97 39
-43 22 -110 49 -149 61 -39 12 -78 29 -87 39 -9 10 -32 56 -50 102 l-34 84
-60 3 -59 3 -33 -83z m252 -476 c125 -44 241 -157 289 -280 31 -80 37 -222 14
-308 -61 -227 -305 -383 -537 -345 -158 26 -288 122 -359 267 -38 75 -42 92
-47 179 -6 118 14 200 68 283 70 108 171 183 293 217 70 20 204 14 279 -13z"/>
<path d="M3057 4695 c-104 -39 -168 -135 -168 -248 0 -77 16 -120 67 -177 145
-161 408 -90 454 122 22 105 -30 224 -123 282 -38 24 -61 30 -120 32 -47 3
-85 -1 -110 -11z"/>
<path d="M372 4915 c-66 -29 -62 93 -62 -1800 l0 -1715 105 0 105 0 2 1578 3
1577 22 40 c24 46 54 75 103 101 32 17 66 19 400 22 l365 3 0 72 c0 40 4 87 9
105 l9 32 -514 0 c-423 -1 -520 -3 -547 -15z"/>
<path d="M4950 4918 c1 -7 11 -53 24 -103 l23 -90 149 -6 c187 -6 235 -27 287
-124 l22 -40 3 -1577 2 -1578 105 0 105 0 0 1723 c0 1703 0 1722 -20 1755 -11
18 -32 37 -46 42 -40 16 -654 13 -654 -2z"/>
<path d="M740 2950 l0 -1550 640 0 640 0 0 105 0 105 110 0 110 0 0 344 0 345
-24 28 -24 28 -299 5 c-242 5 -306 9 -339 22 -197 78 -312 285 -270 487 9 41
28 96 44 125 l29 51 -22 17 c-38 29 -58 84 -53 147 5 54 4 57 -25 76 -66 44
-79 110 -47 245 7 31 10 68 6 83 -5 22 -12 27 -39 27 -97 0 -186 66 -213 157
-17 58 -13 106 11 154 8 14 97 144 199 288 l185 261 -309 0 -310 0 0 -1550z"/>
<path d="M5028 4393 c10 -276 -56 -584 -178 -842 -98 -204 -200 -350 -365
-519 l-100 -104 -3 -764 -2 -764 430 0 430 0 0 1550 0 1550 -108 0 -107 0 3
-107z"/>
<path d="M2240 1275 c0 -134 12 -168 65 -191 51 -21 1319 -21 1370 0 53 23 65
57 65 191 l0 115 -750 0 -750 0 0 -115z"/>
<path d="M53 1165 c-17 -7 -36 -22 -42 -34 -7 -12 -11 -113 -11 -279 l0 -260
31 -26 31 -26 2929 0 2929 0 32 29 33 29 3 246 c3 210 1 250 -13 276 -32 62
10 60 -1048 60 l-964 0 -5 -85 c-7 -101 -36 -160 -100 -203 l-42 -27 -827 0
-827 0 -44 30 c-64 45 -89 99 -96 201 l-5 84 -966 0 c-799 -1 -971 -3 -998
-15z m436 -229 c38 -37 48 -83 27 -124 -27 -52 -51 -62 -151 -62 -100 0 -124
10 -151 62 -21 40 -11 87 24 120 38 35 46 38 139 35 75 -2 84 -4 112 -31z
m505 20 c60 -25 83 -88 54 -151 -19 -41 -57 -55 -154 -55 -85 0 -87 1 -120 34
-57 57 -43 140 30 172 41 17 148 18 190 0z"/>
<path d="M529 197 c113 -141 146 -172 199 -187 52 -14 4472 -14 4524 0 53 15
86 46 199 187 l100 123 -2561 0 -2561 0 100 -123z"/>
</g>
</svg>
